<svg id="레이어_1" data-name="레이어 1" xmlns="http://www.w3.org/2000/svg" viewBox="0 0 1127.08 242.22"><title>대지 1</title><path d="M693.06,138.89H672.94l-4.07,11.86h-8.51l19.28-53h6.73l19.28,53h-8.48Zm-2.29-7.13-7.68-23.17H683l-7.68,23.17Z"/><path d="M711.32,97.71h8v53h-8Z"/><path d="M777.27,145.4a33.51,33.51,0,0,1-6.91,4.08,20.09,20.09,0,0,1-7.89,1.71q-7.61-.15-12.08-4.91a15.91,15.91,0,0,1-4.69-11.39q.07-9.93,10.11-15.5a19.33,19.33,0,0,1-3-4.83,11.27,11.27,0,0,1-1.31-5.24,12,12,0,0,1,3.27-8.48,12.26,12.26,0,0,1,17.28,0,12.4,12.4,0,0,1,3.27,8.48q.15,7.38-8.87,11.86l11.31,13.64a28.55,28.55,0,0,0,4.62-8.88l6.8,2.69a37.23,37.23,0,0,1-2.91,6,30.65,30.65,0,0,1-4,5.49l9,10.66h-9Zm-17.2-21q-7.76,4.55-7.68,10.37a9.16,9.16,0,0,0,3,6.84,9.35,9.35,0,0,0,6.84,2.83q5.17.07,10.66-4.69ZM758.14,109a5.82,5.82,0,0,0,1.2,3.34,14.73,14.73,0,0,0,2.73,3.46,14.39,14.39,0,0,0,5.16-3.13,5.71,5.71,0,0,0,1.35-3.67,5.07,5.07,0,0,0-1.42-3.64,5.3,5.3,0,0,0-3.82-1.42,4.92,4.92,0,0,0-3.64,1.42A4.84,4.84,0,0,0,758.14,109Z"/><path d="M814.52,97.71h20.7a16.29,16.29,0,0,1,10.81,3.5q5.06,4,5.27,11.31-.15,10.8-10.26,14.7l12.3,23.53h-9.57l-10.95-22.66H822.56v22.66h-8Zm8,23.25h12.15q4.51-.08,6.77-2.62a8.19,8.19,0,0,0,2.22-5.82c-.05-2.77-.93-4.77-2.66-6a9.16,9.16,0,0,0-5.89-1.64H822.56Z"/><path d="M858.14,124.23a87.38,87.38,0,0,1,.55-12.37,14.45,14.45,0,0,1,1.78-5,18.74,18.74,0,0,1,16.62-9.53,18.55,18.55,0,0,1,10.55,3,17.88,17.88,0,0,1,6,6.55,12.12,12.12,0,0,1,1.86,5,103.47,103.47,0,0,1,.47,12.37,103.68,103.68,0,0,1-.47,12.3,12.28,12.28,0,0,1-1.86,5.13,17.32,17.32,0,0,1-6,6.47,19,19,0,0,1-10.55,3.06,18.67,18.67,0,0,1-10.44-3.06,17.77,17.77,0,0,1-6.18-6.47c-.39-.8-.74-1.57-1.06-2.29a15,15,0,0,1-.72-2.84A87.54,87.54,0,0,1,858.14,124.23Zm8.08,0a61.74,61.74,0,0,0,.58,10.59,8.86,8.86,0,0,0,2.07,4.47,10.9,10.9,0,0,0,8.22,3.86,9.94,9.94,0,0,0,5-1.2,8.94,8.94,0,0,0,3.2-2.66,9.27,9.27,0,0,0,2.14-4.47,65,65,0,0,0,.55-10.59,66.69,66.69,0,0,0-.55-10.66,9.24,9.24,0,0,0-2.14-4.4,9.65,9.65,0,0,0-3.2-2.73,11.65,11.65,0,0,0-5-1.12,11,11,0,0,0-4.87,1.12,10.25,10.25,0,0,0-3.35,2.73,8.81,8.81,0,0,0-2.07,4.4A63.3,63.3,0,0,0,866.22,124.23Z"/><path d="M905.4,97.71H926q7.81.08,11.75,3.93a13.8,13.8,0,0,1,4,10.3,12.2,12.2,0,0,1-1.56,6.25,10.28,10.28,0,0,1-2.4,2.7,17.15,17.15,0,0,1-3.86,2.43v.15a10.67,10.67,0,0,1,6.55,4.55,14.89,14.89,0,0,1,2.07,7.67c0,4.58-1.48,8.21-4.29,10.88a14.16,14.16,0,0,1-10.44,4.18H905.4Zm8,7.17v15.17H925c2.93,0,5.09-.77,6.47-2.29a7.2,7.2,0,0,0,2.11-5.31,7.53,7.53,0,0,0-2.11-5.42c-1.38-1.39-3.54-2.1-6.47-2.15Zm0,22.34v15.93H925.8q4.49-.08,6.55-2.44a8,8,0,0,0,2.07-5.53,8.14,8.14,0,0,0-2.07-5.6q-2.07-2.3-6.55-2.36Z"/><path d="M949,124.23a87.38,87.38,0,0,1,.55-12.37,14.66,14.66,0,0,1,1.78-5,18.44,18.44,0,0,1,6.18-6.55,18.25,18.25,0,0,1,10.44-3,18.55,18.55,0,0,1,10.55,3,17.8,17.8,0,0,1,6,6.55,12.12,12.12,0,0,1,1.86,5,103.47,103.47,0,0,1,.47,12.37,103.68,103.68,0,0,1-.47,12.3,12.28,12.28,0,0,1-1.86,5.13,17.24,17.24,0,0,1-6,6.47A19,19,0,0,1,968,151.19a18.67,18.67,0,0,1-10.44-3.06,17.86,17.86,0,0,1-6.18-6.47c-.39-.8-.74-1.57-1.06-2.29a15,15,0,0,1-.72-2.84A87.54,87.54,0,0,1,949,124.23Zm8.08,0a61.74,61.74,0,0,0,.58,10.59,8.86,8.86,0,0,0,2.07,4.47,10.9,10.9,0,0,0,8.22,3.86,9.94,9.94,0,0,0,5-1.2,8.94,8.94,0,0,0,3.2-2.66,9.37,9.37,0,0,0,2.15-4.47,66.63,66.63,0,0,0,.54-10.59,68.33,68.33,0,0,0-.54-10.66,9.34,9.34,0,0,0-2.15-4.4,9.65,9.65,0,0,0-3.2-2.73,11.65,11.65,0,0,0-5-1.12,11,11,0,0,0-4.87,1.12,10.25,10.25,0,0,0-3.35,2.73,8.81,8.81,0,0,0-2.07,4.4A63.3,63.3,0,0,0,957.09,124.23Z"/><path d="M1003.91,104.88H989.39V97.71h37.11v7.17H1012v45.87h-8.07Z"/><path d="M1032.17,97.71h8v53h-8Z"/><path d="M1087.14,135.91q-1.76,7.38-6.66,11.35a18.93,18.93,0,0,1-12,3.93,18.67,18.67,0,0,1-10.44-3.06,17.69,17.69,0,0,1-6.18-6.47c-.39-.8-.74-1.57-1.06-2.29a15.68,15.68,0,0,1-.73-2.84,89.69,89.69,0,0,1-.54-12.3,89.52,89.52,0,0,1,.54-12.37,14.65,14.65,0,0,1,1.79-5,18.74,18.74,0,0,1,16.62-9.53q7.68.07,12.52,4.54a20.06,20.06,0,0,1,6.11,11.17h-8.52a11.7,11.7,0,0,0-3.56-5.46,10.47,10.47,0,0,0-6.55-2.21,11,11,0,0,0-4.87,1.12,10.14,10.14,0,0,0-3.35,2.73,8.81,8.81,0,0,0-2.07,4.4,63,63,0,0,0-.59,10.66,61.41,61.41,0,0,0,.59,10.59,8.86,8.86,0,0,0,2.07,4.47,10.9,10.9,0,0,0,8.22,3.86q6.77,0,10.11-7.24Z"/><path d="M1108.53,143.15c6.88-.1,10.38-2.56,10.47-7.39q.07-5.92-6.91-7.13c-2.13-.29-4.47-.61-7-1q-6.84-1.12-10.4-5.05a14.1,14.1,0,0,1-3.68-9.83,14.51,14.51,0,0,1,4.62-11.2q4.48-4.21,12.7-4.29a29.75,29.75,0,0,1,17.21,5.49l-4.48,6.62a24.24,24.24,0,0,0-13.13-4.07,10,10,0,0,0-6.19,1.85,6.9,6.9,0,0,0-2.65,5.75,5.85,5.85,0,0,0,1.78,4.15,10.19,10.19,0,0,0,5.71,2.61q2.19.38,6,.84,7.46,1,11,5.35a15,15,0,0,1,3.53,9.89q-.4,15.21-18.63,15.43a30.09,30.09,0,0,1-20.26-7.28l5.28-6A23.3,23.3,0,0,0,1108.53,143.15Z"/><path d="M674.87,194.28H660.36v-7.17h37.1v7.17H683v45.87h-8.08Z"/><path d="M703.14,187.11H737v7.61H711.18v15.13h22V217h-22v15.57H737v7.6H703.14Z"/><path d="M780.33,225.31q-1.74,7.38-6.66,11.35a18.93,18.93,0,0,1-12,3.93,18.67,18.67,0,0,1-10.44-3.06,17.7,17.7,0,0,1-6.18-6.47c-.39-.8-.74-1.57-1.06-2.29a15,15,0,0,1-.72-2.84,87.44,87.44,0,0,1-.55-12.3,87.11,87.11,0,0,1,.55-12.36,14.44,14.44,0,0,1,1.78-5.06,18.74,18.74,0,0,1,16.62-9.53q7.68.07,12.52,4.55a20,20,0,0,1,6.11,11.16h-8.51a11.72,11.72,0,0,0-3.57-5.45,10.52,10.52,0,0,0-6.55-2.22,11.17,11.17,0,0,0-4.87,1.12,10.25,10.25,0,0,0-3.35,2.73,8.81,8.81,0,0,0-2.07,4.4,63.3,63.3,0,0,0-.58,10.66,61.74,61.74,0,0,0,.58,10.59,8.86,8.86,0,0,0,2.07,4.47,10.9,10.9,0,0,0,8.22,3.86q6.76,0,10.12-7.24Z"/><path d="M815,217H794v23.17h-8v-53h8v22.74h21V187.11h8v53h-8Z"/><path d="M852.14,187.11h8v45.44H886v7.6H852.14Z"/><path d="M920.75,228.29H900.63l-4.07,11.86H888l19.28-53h6.73l19.28,53h-8.47Zm-2.3-7.13L910.78,198h-.15L903,221.16Z"/><path d="M939,187.11h20.55q7.83.07,11.75,3.93a13.81,13.81,0,0,1,4,10.3,12.31,12.31,0,0,1-1.57,6.25,10.28,10.28,0,0,1-2.4,2.7,17.3,17.3,0,0,1-3.85,2.43v.15a10.67,10.67,0,0,1,6.54,4.55,14.8,14.8,0,0,1,2.08,7.67Q976,232,971.78,236a14.15,14.15,0,0,1-10.44,4.18H939Zm8,7.17v15.17h11.6c2.94,0,5.09-.76,6.48-2.29a7.24,7.24,0,0,0,2.11-5.31,7.59,7.59,0,0,0-2.11-5.42c-1.39-1.39-3.54-2.1-6.48-2.15Zm0,22.34v15.93h12.37q4.47-.08,6.54-2.44a8,8,0,0,0,2.08-5.53A8.1,8.1,0,0,0,966,219c-1.38-1.53-3.56-2.31-6.54-2.36Z"/><circle cx="33.91" cy="208.61" r="33.91"/><rect x="437.2" width="184.77" height="48.45"/><rect x="456.92" y="145.33" width="145.33" height="48.45" transform="translate(360.03 699.15) rotate(-90)"/><polygon points="207.25 242.24 153.85 242.24 67.53 57.12 94.26 -0.2 207.25 242.24"/><path d="M328,144c38.75-6.58,64.09-36.12,64.09-71.3A72.88,72.88,0,0,0,319.44,0h-112L230,48.45h88.16a24.23,24.23,0,1,1,0,48.45H252.61l22.59,48.44,45.17,96.88,53.47,0-45.55-97.67Z"/></svg>